PathFileType	4	(X/Y/Z)	C:\Users\WrightLab\Desktop\Jo\P2_Trial18.trc
DataRate	CameraRate	NumFrames	NumMarkers	Units	OrigDataRate	OrigDataStartFrame	OrigNumFrames
100.00	100.00	       28	19	mm	100.00	325	       433
Frame#	Time	Headset_Front			Headset_Back			Headset_Left			Headset_Right			Left_Shoulder			Right_Shoulder			Sternum			C7			Left Elbow			Right Elbow			Left Wrist			Right Wrist			Left ASIS			Right ASIS			S2			Left Knee			Right Knee			Left Ankle			Right Ankle			
		X1	Y1	Z1	X2	Y2	Z2	X3	Y3	Z3	X4	Y4	Z4	X5	Y5	Z5	X6	Y6	Z6	X7	Y7	Z7	X8	Y8	Z8	X9	Y9	Z9	X10	Y10	Z10	X11	Y11	Z11	X12	Y12	Z12	X13	Y13	Z13	X14	Y14	Z14	X15	Y15	Z15	X16	Y16	Z16	X17	Y17	Z17	X18	Y18	Z18	X19	Y19	Z19	

325	3.240				-331.07620	1677.33325	1709.99768	-334.06186	1570.37280	1846.10559	-366.00406	1338.53528	1688.37683	-298.88568	1483.65747	1832.05518	-321.60919	1021.54321	1677.09631							-410.03241	1266.13135	1832.88391	-141.81885	1221.06165	1365.58032	-302.52148	1061.20972	1802.61206	-120.67581	980.88324	1283.03955				-42.18554	995.29822	1712.18066				-258.30096	575.17834	2044.28687	-147.96275	568.42493	1494.39392	-328.84286	342.57605	2283.56104	-145.40228	134.82410	1460.33398	
326	3.250							-342.95486	1569.67407	1854.47498	-369.31000	1337.56140	1697.01758	-307.93741	1482.10266	1841.98657	-323.59149	1020.40747	1686.93213							-419.80103	1264.64087	1840.34473	-134.03342	1219.21619	1381.53857	-309.95282	1060.24731	1814.31958	-115.69566	979.92303	1296.65222				-46.37374	993.26514	1735.73621				-269.67017	573.55597	2061.64453	-146.58171	568.17889	1508.27625	-349.41879	348.30487	2299.67310	-144.69749	136.79001	1458.39172	
327	3.260				-335.13809	1674.63770	1728.55786	-351.55872	1568.73645	1863.42383	-372.33188	1336.55981	1704.87634	-317.14566	1480.74756	1852.62720										-429.49371	1264.52820	1848.34216	-126.99625	1216.92456	1398.34033	-317.24377	1058.06506	1823.00696	-110.37990	978.19452	1310.90857				-51.16232	993.67218	1760.87952				-281.38541	572.13281	2079.91772	-146.88882	566.74286	1519.92163	-370.02423	353.03589	2315.79907	-142.52539	139.30553	1456.53601	
328	3.270	-203.59302	1471.65979	1717.29260	-337.28897	1672.99036	1738.07910	-360.48846	1568.42480	1872.51709	-374.72180	1335.59473	1712.80664	-326.37381	1479.46350	1865.54907	-327.84570	1017.23578	1705.46741							-439.71777	1264.35498	1857.13086	-119.62665	1215.08386	1413.62207	-324.99335	1056.36475	1834.19458	-105.33602	976.53772	1325.68481				-55.49064	991.84186	1783.53906				-292.86658	568.56287	2095.60962	-145.82635	564.65466	1533.72754	-390.24445	355.98138	2331.29639	-140.00742	141.36166	1455.36536	
329	3.280	-206.90926	1469.25159	1733.25061	-338.46707	1670.77856	1746.05054	-369.34869	1567.40833	1881.14587	-377.64169	1335.12000	1717.73804	-336.02148	1477.32739	1875.58972	-330.11899	1015.27234	1715.86853										-112.83167	1212.04736	1431.48022	-332.34085	1054.96204	1844.48889	-100.57985	974.46423	1340.85010				-61.17183	989.59003	1806.57898				-304.39966	566.19299	2112.36523	-145.24715	561.34296	1548.44482	-409.31271	357.77115	2346.08252	-137.47766	144.20178	1453.85596	
330	3.290	-210.59998	1466.58630	1750.14160	-340.56845	1668.72583	1755.72412	-378.55389	1566.82080	1889.98853	-379.83163	1330.15247	1741.82690	-344.97891	1475.07593	1886.18530													-106.46391	1208.36670	1449.69897	-340.52191	1052.97144	1855.24207	-95.40503	972.19427	1356.33655				-66.12260	987.49860	1831.53992				-315.64551	562.14294	2126.70996	-145.59760	558.52887	1563.79736	-427.05005	359.29666	2361.04517	-134.28928	146.84071	1453.08923	
331	3.300	-214.80273	1463.38757	1765.89197	-342.01059	1666.23340	1763.83557				-381.92081	1328.94775	1747.68079	-354.16656	1472.98999	1898.52368													-100.45658	1204.41699	1468.71704	-347.92621	1050.91931	1867.09253	-91.10833	968.97461	1372.07764				-73.70500	987.39746	1856.72949				-326.74640	557.71881	2142.48901	-146.31729	555.26031	1577.52588	-443.41064	359.40521	2373.99487	-130.06020	151.67334	1452.50452	
332	3.310	-218.95694	1460.37451	1782.39172	-343.62964	1663.16553	1773.05103				-384.49811	1326.71387	1755.06824	-363.76575	1469.25427	1909.17078													-93.87460	1200.34717	1487.79041	-356.19363	1049.05164	1877.89709	-86.49039	966.47253	1387.98792				-78.96571	990.63599	1888.17041				-337.77039	552.18506	2155.90991	-147.18446	552.42712	1592.37451	-460.23074	358.03461	2386.06250	-124.61954	157.56859	1452.68103	
333	3.320	-223.40167	1456.49365	1798.60229	-345.03403	1660.26123	1780.92798				-386.71039	1323.94055	1764.93335	-372.91541	1466.21765	1920.15393													-89.91926	1195.70117	1508.00830	-364.11896	1046.54810	1889.81311	-82.43712	962.74060	1404.89880				-87.62813	986.12305	1907.33386				-348.90381	547.72919	2171.10327	-147.73447	549.43347	1608.26331	-474.57928	354.61783	2397.52173	-118.02052	164.17661	1454.87061	
334	3.330	-228.24422	1452.92639	1815.65674	-346.41199	1656.56763	1789.48462				-389.38998	1321.15906	1775.06360	-381.53159	1462.03723	1931.59900													-85.58757	1190.55249	1526.74109	-370.46255	1043.86096	1904.83130	-79.06669	959.02136	1421.84241				-96.77519	982.91071	1929.61353				-359.72031	540.47064	2184.25659	-151.10939	547.80927	1624.02429	-483.74832	345.42636	2406.96680	-111.02222	171.83670	1455.84180	
335	3.340	-233.12549	1449.22058	1832.64868	-346.84003	1652.65161	1795.65552				-391.93445	1317.76038	1783.81702	-391.12790	1458.29456	1942.28613													-81.68354	1185.43738	1547.53394	-376.52954	1040.76672	1911.37183	-75.72070	955.24432	1439.41650				-105.78296	979.81061	1953.23267				-370.94794	532.50739	2196.78857	-153.01051	547.20984	1642.11731	-489.64282	330.05783	2412.25073	-103.56573	180.40254	1460.07227	
336	3.350	-238.31143	1445.25549	1848.91418	-348.19733	1648.72559	1804.57092				-394.92215	1314.27917	1789.67993																-77.76797	1180.06323	1570.01282	-384.51315	1036.88196	1924.25195	-72.58106	951.32770	1456.41064				-114.38998	977.67072	1977.83411				-382.53983	524.03314	2210.30933	-154.18663	550.06604	1658.22632	-493.47778	311.94617	2417.01294	-93.90099	188.90688	1465.00061	
337	3.360	-243.23198	1441.01978	1866.04053	-348.40390	1643.13184	1810.31323																						-74.40771	1174.00378	1588.79224	-391.62915	1031.20862	1936.17542	-69.42827	946.62927	1474.80103				-122.73022	975.13843	2001.45947				-393.37405	514.74927	2222.03760	-154.74991	553.60614	1676.45215	-497.82083	292.46729	2418.22510	-83.79589	198.03696	1471.13623	
338	3.370	-248.12607	1437.29578	1883.65515	-349.04620	1638.75024	1819.37463																						-71.39297	1168.11804	1608.56433	-399.74915	1025.91309	1948.16736	-67.04050	941.75885	1493.68701				-131.84471	973.74500	2026.10669				-404.65472	505.38461	2234.01855	-155.96167	556.20508	1697.24683	-501.82104	273.31677	2422.16724	-73.74498	207.57695	1478.92981	
339	3.380	-253.33076	1433.85632	1899.86987	-349.79285	1634.10510	1824.95056																						-68.32845	1161.98364	1633.53125	-406.23453	1019.20709	1959.43628	-65.62923	936.48242	1511.73462				-140.24971	972.09143	2049.79492				-414.08078	492.91852	2240.69092	-157.47369	558.66290	1718.35742	-504.25677	250.90894	2422.52905	-62.98592	216.91379	1488.80298	
340	3.390	-258.40140	1430.43762	1914.10303	-350.80005	1631.34326	1835.09619																						-65.95346	1155.82800	1654.23560	-413.37491	1012.80450	1971.95154	-64.30843	930.64862	1530.55676				-149.21062	972.08789	2073.10547				-423.77710	484.41498	2246.61792	-158.08620	559.92847	1739.92480	-502.80212	229.49936	2423.36646	-51.45369	225.62027	1500.59888	
341	3.400	-263.97256	1428.04980	1929.39343	-352.48431	1627.78955	1842.44788																						-63.83801	1149.88257	1675.37244	-418.87943	1006.31525	1983.87097	-62.76802	925.08258	1551.79236				-157.38750	972.83789	2093.95117				-431.84494	478.65894	2249.88110	-159.43678	561.56500	1760.81409	-499.31934	207.26512	2424.07153	-40.72189	235.06116	1513.42480	
342	3.410	-268.61407	1426.33130	1941.77649	-353.00745	1625.34253	1850.97192																						-62.27325	1143.58093	1697.17212	-423.11823	1000.69012	1994.15845	-60.86520	920.03528	1572.45044				-165.45987	974.07477	2113.87598				-439.02075	475.77045	2251.94312	-159.98508	563.14746	1779.26660	-494.18021	187.15686	2424.04834	-30.93749	244.57596	1529.35535	
343	3.420	-273.79807	1425.11072	1952.96692	-353.46454	1622.66223	1858.64221																						-61.71577	1137.77173	1719.29578	-425.98944	996.11859	2005.04651	-59.78010	915.13354	1593.77246				-173.09900	974.81921	2133.32446				-446.45572	475.45117	2254.55835	-159.97221	564.96588	1797.18188	-489.09467	168.23045	2422.45898	-21.77026	253.28276	1547.24878	
344	3.430	-278.71964	1424.79944	1963.40186	-354.68295	1620.80322	1867.26636																						-61.56861	1132.28711	1741.15723	-428.34485	993.07782	2014.66162	-56.96691	911.43549	1613.80859				-180.23740	975.35437	2151.07251				-455.61630	477.79581	2258.79712	-157.37596	568.46204	1810.87988	-484.54565	154.73582	2421.20654	-14.31937	262.90323	1565.83032	
345	3.440	-282.77094	1426.02515	1974.04053	-355.09338	1618.93262	1876.21851																						-61.88306	1127.59241	1763.35144	-430.46924	991.59100	2025.76831	-56.45041	906.71075	1638.48914				-187.72954	977.13293	2169.08862				-464.07004	480.66904	2264.01733	-153.08459	571.32074	1831.76123	-478.56522	147.04947	2418.23633	-8.53070	272.32608	1585.72034	
346	3.450	-286.52832	1427.30554	1983.76233	-354.98499	1616.90283	1884.91504																						-62.94553	1123.11353	1784.91138	-431.06241	991.11823	2034.02600	-56.38581	901.36426	1663.32727				-194.88683	979.12042	2185.96973				-469.15015	481.43689	2272.74121	-149.86136	574.67889	1851.21289	-472.47882	142.49600	2411.89258	-3.11314	281.68835	1607.31604	
347	3.460	-290.38834	1429.20728	1992.54260	-355.08762	1615.88977	1894.15747																						-64.67902	1119.86963	1806.61487				-57.11113	896.94971	1688.53955				-201.94373	981.92621	2201.99854				-473.76578	480.14651	2279.62524	-146.62851	577.17041	1874.48792	-465.66895	139.73154	2406.54932	2.44716	290.75723	1631.21802	
348	3.470	-294.05588	1431.48511	2001.83411	-355.41757	1615.49512	1903.31262																						-66.76995	1117.36853	1827.22119				-58.28846	892.88312	1715.71387				-208.44591	984.36249	2216.78613				-477.74069	479.22601	2289.25952	-143.48062	578.24982	1897.80054	-458.12051	137.40630	2400.28589	7.89927	299.83392	1655.75989	
349	3.480	-296.01761	1433.57288	2010.89636	-355.46375	1615.74988	1911.81213																						-69.59504	1115.31848	1848.06775				-59.70386	889.68689	1742.40527				-215.35307	987.48657	2230.85669				-480.41400	477.70190	2296.08813	-141.21576	578.80609	1921.59888	-451.78748	136.10547	2393.40552	14.32290	309.29163	1680.50647	
350	3.490	-299.10129	1435.66260	2018.66846	-355.90939	1616.40405	1921.30774																						-73.28140	1113.88123	1867.86511				-61.59455	886.71814	1769.98755				-222.98750	990.97900	2245.30713				-482.46698	478.90271	2298.80859	-140.13503	578.55884	1943.56433	-444.40268	135.48256	2386.95435	21.41221	315.71176	1710.63269	
351	3.500	-301.33344	1438.11963	2029.50024	-355.87073	1618.73657	1930.28943																						-77.43481	1112.77319	1886.73474				-64.37582	885.25494	1797.66492				-230.58594	995.12354	2258.50586				-484.17474	480.69925	2300.80298	-139.89778	577.96991	1963.79199	-438.56473	134.25513	2379.63501	28.98278	321.59146	1742.11438	
352	3.510	-303.91992	1440.65430	2037.71411	-355.99017	1620.99976	1939.73425																						-82.57954	1111.97498	1904.58557				-66.42944	883.55493	1824.60632				-238.18912	998.61755	2270.67432				-485.80585	482.64783	2302.11597	-140.17406	577.65649	1984.32227	-433.74399	135.75092	2374.26318	37.89711	323.44022	1777.88062	
